<?xml version="1.0" encoding="UTF-8"?>
<svg width="1024" height="1024" viewBox="0 0 1024 1024" xmlns="http://www.w3.org/2000/svg">
  <!-- 背景 -->
  <rect width="1024" height="1024" fill="#ffffff"/>
  
  <!-- 地图背景 -->
  <rect x="112" y="112" width="800" height="800" rx="40" fill="#f0f0f0"/>
  
  <!-- 地图网格线 -->
  <g stroke="#e0e0e0" stroke-width="2">
    <line x1="212" y1="212" x2="912" y2="212"/>
    <line x1="212" y1="412" x2="912" y2="412"/>
    <line x1="212" y1="612" x2="912" y2="612"/>
    <line x1="212" y1="812" x2="912" y2="812"/>
    <line x1="212" y1="212" x2="212" y2="812"/>
    <line x1="412" y1="212" x2="412" y2="812"/>
    <line x1="612" y1="212" x2="612" y2="812"/>
    <line x1="812" y1="212" x2="812" y2="812"/>
  </g>
  
  <!-- 运动轨迹 -->
  <path d="M 262,712 Q 362,612 462,662 T 662,562 Q 762,462 862,512" 
        fill="none" 
        stroke="#007AFF" 
        stroke-width="40" 
        stroke-linecap="round"
        stroke-linejoin="round"/>
  
  <!-- 起点标记 -->
  <circle cx="262" cy="712" r="30" fill="#FF3B30"/>
  
  <!-- 终点标记 -->
  <circle cx="862" cy="512" r="30" fill="#34C759"/>
  
  <!-- 中间路径点 -->
  <circle cx="462" cy="662" r="20" fill="#007AFF"/>
  <circle cx="662" cy="562" r="20" fill="#007AFF"/>
</svg>
